<svg width="60" height="60" viewBox="0 0 60 60" fill="none" xmlns="http://www.w3.org/2000/svg">
<path d="M2.5 30C2.5 28.6193 3.6193 27.5 5 27.5H55C56.3807 27.5 57.5 28.6193 57.5 30C57.5 31.3807 56.3807 32.5 55 32.5H5C3.6193 32.5 2.5 31.3807 2.5 30Z" fill="white"/>
<path d="M2.5 10C2.5 8.6193 3.6193 7.5 5 7.5H55C56.3807 7.5 57.5 8.6193 57.5 10C57.5 11.3807 56.3807 12.5 55 12.5H5C3.6193 12.5 2.5 11.3807 2.5 10Z" fill="white"/>
<path d="M2.5 50C2.5 48.6193 3.6193 47.5 5 47.5H55C56.3807 47.5 57.5 48.6193 57.5 50C57.5 51.3807 56.3807 52.5 55 52.5H5C3.6193 52.5 2.5 51.3807 2.5 50Z" fill="white"/>
</svg>
